<svg width="86" height="85" viewBox="0 0 86 85" fill="none" xmlns="http://www.w3.org/2000/svg">
<ellipse cx="42.61" cy="42.35" rx="42.61" ry="42.35" fill="black"/>
<path d="M30.7827 66.981C35.3801 67.1325 39.9616 66.3749 44.2566 64.7529C48.5516 63.1309 52.4728 60.6774 55.7886 57.5375C59.1043 54.3976 61.7474 50.635 63.5614 46.472C65.3755 42.309 66.3238 37.8301 66.3503 33.3C68.4572 30.7323 70.0216 27.7758 70.9518 24.6042C71.0212 24.3536 71.0156 24.0886 70.9356 23.841C70.8557 23.5935 70.7047 23.374 70.5011 23.209C70.2974 23.044 70.0496 22.9405 69.7876 22.911C69.5255 22.8815 69.2604 22.9272 69.0241 23.0426C67.9219 23.5651 66.681 23.7339 65.4762 23.5252C64.2715 23.3164 63.1635 22.7407 62.3086 21.879C61.2171 20.702 59.8969 19.7526 58.4261 19.0873C56.9553 18.4219 55.3639 18.0541 53.7461 18.0055C52.1283 17.957 50.5171 18.2287 49.0079 18.8047C47.4987 19.3806 46.1222 20.2491 44.96 21.3585C43.3688 22.8762 42.2033 24.7734 41.5768 26.8659C40.9503 28.9584 40.8841 31.1749 41.3846 33.3C30.9693 33.9124 23.8185 29.0439 18.0978 22.369C17.9259 22.1773 17.7011 22.039 17.4508 21.9711C17.2005 21.9032 16.9355 21.9085 16.6882 21.9865C16.4409 22.0644 16.222 22.2116 16.0583 22.41C15.8945 22.6084 15.7929 22.8495 15.766 23.1038C14.6762 29.0575 15.4623 35.197 18.0189 40.6978C20.5754 46.1986 24.7799 50.7972 30.0677 53.8761C26.5222 57.8805 21.5433 60.3816 16.1702 60.8572C15.8823 60.9042 15.6166 61.0387 15.4102 61.2418C15.2038 61.4449 15.067 61.7065 15.019 61.99C14.9711 62.2734 15.0143 62.5646 15.1427 62.8227C15.271 63.0807 15.4781 63.2928 15.7349 63.4292C20.4094 65.7298 25.5571 66.9449 30.7827 66.981Z" fill="white"/>
</svg>
