<svg width="86" height="85" viewBox="0 0 86 85" fill="none" xmlns="http://www.w3.org/2000/svg">
<ellipse cx="42.61" cy="42.35" rx="42.61" ry="42.35" fill="black"/>
<path d="M43 14C35.3883 14 34.4397 14.0368 31.4608 14.1628C28.4697 14.3098 26.4464 14.7736 24.6612 15.4667C22.82 16.1878 21.2518 17.1451 19.7028 18.7028C18.1434 20.2518 17.1773 21.82 16.4667 23.6612C15.7736 25.4464 15.3098 27.4697 15.1628 30.4608C15.028 33.4414 15 34.3883 15 42C15 49.6117 15.0368 50.5603 15.1628 53.5392C15.3098 56.5216 15.7736 58.5536 16.4667 60.3388C17.1878 62.18 18.1451 63.7482 19.7028 65.2972C21.2518 66.8566 22.82 67.8227 24.6612 68.5333C26.4464 69.2177 28.4784 69.6902 31.4608 69.8372C34.4414 69.972 35.3883 70 43 70C50.6117 70 51.5603 69.9632 54.5392 69.8372C57.5216 69.6902 59.5536 69.2159 61.3388 68.5333C63.18 67.8122 64.7482 66.8549 66.2972 65.2972C67.8566 63.7482 68.8227 62.1888 69.5333 60.3388C70.2177 58.5536 70.6902 56.5216 70.8372 53.5392C70.972 50.5586 71 49.6117 71 42C71 34.3883 70.9632 33.4397 70.8372 30.4608C70.6902 27.4784 70.2159 25.4359 69.5333 23.6612C68.8122 21.82 67.8549 20.2518 66.2972 18.7028C64.7482 17.1434 63.1888 16.1773 61.3388 15.4667C59.5536 14.7736 57.5216 14.3098 54.5392 14.1628C51.5586 14.028 50.6117 14 43 14V14ZM43 19.0406C50.4752 19.0406 51.3678 19.0774 54.3222 19.2034C57.0473 19.3312 58.5314 19.7862 59.5168 20.1713C60.8312 20.6806 61.7501 21.2827 62.7442 22.2663C63.7191 23.2412 64.3212 24.1705 64.8305 25.4849C65.2155 26.4703 65.6706 27.9545 65.7984 30.6796C65.9244 33.634 65.9611 34.5283 65.9611 42.0018C65.9611 49.4752 65.9244 50.3695 65.7878 53.3239C65.6408 56.049 65.1858 57.5332 64.8025 58.5186C64.2722 59.833 63.6806 60.7518 62.704 61.746C61.7186 62.7208 60.7805 63.3229 59.4766 63.8322C58.5034 64.2173 56.9982 64.6723 54.2627 64.8001C51.2925 64.9261 50.4174 64.9629 42.923 64.9629C35.4286 64.9629 34.5552 64.9261 31.5816 64.7896C28.8565 64.6426 27.353 64.1875 26.3677 63.8042C25.0375 63.2739 24.1256 62.6823 23.149 61.7057C22.1636 60.7203 21.5371 59.7822 21.054 58.4783C20.662 57.5052 20.2139 56 20.0686 53.2644C19.9689 50.3293 19.9216 49.4192 19.9216 41.9597C19.9216 34.5038 19.9689 33.592 20.0686 30.6201C20.2139 27.8845 20.662 26.3828 21.054 25.4062C21.5371 24.0743 22.1654 23.1641 23.149 22.1788C24.1239 21.2039 25.0375 20.5738 26.3677 20.0803C27.353 19.697 28.8197 19.2419 31.5553 19.1054C34.5254 18.9986 35.4006 18.9601 42.8845 18.9601L43 19.0406ZM43 27.629C35.0523 27.629 28.6255 34.0645 28.6255 42.0035C28.6255 49.9512 35.061 56.378 43 56.378C50.9477 56.378 57.3745 49.9425 57.3745 42.0035C57.3745 34.0558 50.939 27.629 43 27.629ZM43 51.3374C37.8404 51.3374 33.6661 47.1631 33.6661 42.0035C33.6661 36.8439 37.8404 32.6696 43 32.6696C48.1596 32.6696 52.3339 36.8439 52.3339 42.0035C52.3339 47.1631 48.1596 51.3374 43 51.3374ZM61.3143 27.0549C61.3143 28.9154 59.8004 30.4171 57.9486 30.4171C56.0881 30.4171 54.5864 28.9136 54.5864 27.0549C54.5864 25.2049 56.0986 23.6997 57.9486 23.6997C59.7986 23.6997 61.3143 25.2049 61.3143 27.0549Z" fill="white"/>
</svg>
