<svg width="86" height="85" viewBox="0 0 86 85" fill="none" xmlns="http://www.w3.org/2000/svg">
<path d="M85.2222 42.6111C85.2222 19.0711 66.1351 0 42.6111 0C19.0711 0 0 19.0711 0 42.6111C0 63.8741 15.577 81.5044 35.9531 84.6976V54.931H25.1326V42.6138H35.9531V33.2207C35.9531 22.5439 42.3048 16.6476 52.0415 16.6476C56.7047 16.6476 61.5864 17.4785 61.5864 17.4785V27.9635H56.2041C50.9203 27.9635 49.2691 31.2526 49.2691 34.6215V42.6111H61.0857L59.1868 54.9284H49.2691V84.6949C69.6292 81.5017 85.2222 63.8714 85.2222 42.6084V42.6111Z" fill="black"/>
</svg>
